# xmcd
# 
# Track frame offsets:
#     150
#     21597
#     42803
#     72282
#     100697
#     119640
#     134402
#     160322
#     183854
#     207083
#     235819
#     257408
# 
# Disc length: 3786
# 
# Revision: 4
# Processed by: cddbd v1.5.2PL0 Copyright (c) Steve Scherf et al.
# Submitted via: fre:ac v1.0.27
# 
DISCID=a30ec80c
DTITLE=Walter Trout - Common Ground
DYEAR=2010
DGENRE=Blues Rock
TTITLE0=May Be A Fool
TTITLE1=Open Book
TTITLE2=Her Other Man
TTITLE3=Common Ground
TTITLE4=Danger Zone
TTITLE5=Hudson Had Help
TTITLE6=Loaded Gun
TTITLE7=Song For My Guitar
TTITLE8=Eyes Of A Child
TTITLE9=No Regrets
TTITLE10=Wrapped Up In The Blues
TTITLE11=Excess Baggage
EXTD=
EXTT0=
EXTT1=
EXTT2=
EXTT3=
EXTT4=
EXTT5=
EXTT6=
EXTT7=
EXTT8=
EXTT9=
EXTT10=
EXTT11=
PLAYORDER=
